<?xml version="1.0" encoding="utf-8"?>
<!-- Generator: Adobe Illustrator 27.2.0, SVG Export Plug-In . SVG Version: 6.00 Build 0)  -->
<svg version="1.1" id="Layer_1" xmlns="http://www.w3.org/2000/svg" xmlns:xlink="http://www.w3.org/1999/xlink" x="0px" y="0px"
	 viewBox="0 0 792 426.4" style="enable-background:new 0 0 792 426.4;" xml:space="preserve">
<style type="text/css">
	.st0{fill:#C6C6C6;}
	.st1{fill:#FFFFFF;}
	.st2{fill:#ECBE44;}
	.st3{fill:#1D1D1B;}
</style>
<g>
	<g>
		<path class="st0" d="M273,362.1h4.7v26.1h-4l-15.1-18.6v18.6h-4.7v-26.1h4.5l14.7,18V362.1z"/>
		<path class="st0" d="M312.2,366.2h-15.5v6.8h13.8v4.1h-13.8v7h15.7v4.1h-20.5v-26.1h20.3V366.2z"/>
		<path class="st0" d="M341.6,362h4.1l6.7,19.4l6.5-19.3h5.1l-9.6,26.3h-4.2l-6.7-18.7l-6.7,18.7h-4.2l-9.6-26.3h5.2l6.5,19.3
			L341.6,362z"/>
		<path class="st0" d="M407.8,388.1h-4.9v-10.3L392,362.1h5.7l7.7,11.5l7.8-11.5h5.5l-10.9,15.7V388.1z"/>
		<path class="st0" d="M440.7,388.6c-8.4,0-14.3-6.1-14.3-13.4c0-7.4,6-13.5,14.4-13.5c8.4,0,14.3,6.1,14.3,13.4
			S449.2,388.6,440.7,388.6z M440.7,365.8c-5.4,0-9.3,4.1-9.3,9.2c0,5.1,3.9,9.3,9.3,9.3c5.4,0,9.3-4.1,9.3-9.2
			C450.1,370,446.2,365.8,440.7,365.8z"/>
		<path class="st0" d="M485.6,388.1l-6.7-9.1h-6v9.1H468v-26.1h12.2c6.3,0,10.2,3.2,10.2,8.3c0,4.3-2.7,6.9-6.5,7.9l7.4,9.9H485.6z
			 M479.9,366.2h-7v8.8h7.1c3.5,0,5.6-1.7,5.6-4.4C485.6,367.7,483.4,366.2,479.9,366.2z"/>
		<path class="st0" d="M527.8,388.1h-5.8l-9.4-11.7l-4.3,4.2v7.6h-4.8v-26.1h4.8v13.1l13.1-13.1h5.9l-11.4,11.2L527.8,388.1z"/>
	</g>
	<path class="st1" d="M58.6,311.7c-12.5,0-21.9-9.3-21.9-21.1c0-11.7,9.1-21.2,22.2-21.2c7.9,0,12.7,2.6,16.8,6.4l-4.8,5.3
		c-3.4-3-7.1-5.1-12-5.1c-8.2,0-14.2,6.4-14.2,14.5c0,8.1,6,14.6,14.2,14.6c5.3,0,8.7-2,12.3-5.3l4.9,4.7
		C71.6,308.9,66.7,311.7,58.6,311.7z"/>
	<path class="st1" d="M105,293.8V311h-7.6v-40.8h7.6v17h20.5v-17h7.6V311h-7.6v-17.2H105z"/>
	<path class="st1" d="M178.2,311.7c-13.2,0-22.4-9.5-22.4-21.1s9.3-21.2,22.5-21.2c13.2,0,22.4,9.5,22.4,21.1
		C200.7,302.1,191.4,311.7,178.2,311.7z M178.2,276c-8.5,0-14.5,6.5-14.5,14.5c0,8,6.1,14.6,14.6,14.6c8.5,0,14.5-6.5,14.5-14.5
		C192.8,282.6,186.7,276,178.2,276z"/>
	<path class="st1" d="M220.4,276.5v-6.4h34.4v5.3l-25.4,29.2h25.4v6.4h-35.2v-5.3l25.4-29.2H220.4z"/>
	<path class="st1" d="M309.6,276.6h-24.3v10.6h21.6v6.4h-21.6v11h24.6v6.4h-32.2v-40.8h31.9V276.6z"/>
	<path class="st1" d="M362.4,270.2h7.4V311h-6.3l-23.7-29v29h-7.4v-40.8h7l23,28.2V270.2z"/>
	<path class="st2" d="M453.9,311l-10.6-14.2h-9.5V311h-7.6v-40.8h19.2c9.9,0,16,5,16,12.9c0,6.8-4.2,10.8-10.3,12.4l11.6,15.5H453.9
		z M444.9,276.7h-11v13.7h11.1c5.4,0,8.8-2.7,8.8-6.9C453.8,279,450.5,276.7,444.9,276.7z"/>
	<path class="st2" d="M516.1,276.6h-24.3v10.6h21.6v6.4h-21.6v11h24.6v6.4h-32.2v-40.8h31.9V276.6z"/>
	<path class="st2" d="M560,300.9h-0.2l-13.4-19.1V311h-7.4v-40.8h8l13.1,19.3l13.1-19.3h8V311h-7.6v-29.3L560,300.9z"/>
	<path class="st2" d="M637.6,276.6h-24.3v10.6h21.6v6.4h-21.6v11h24.6v6.4h-32.2v-40.8h31.9V276.6z"/>
	<path class="st2" d="M676.4,311h-16v-40.8h16c13.5,0,22.8,8.8,22.8,20.4C699.2,302.1,689.9,311,676.4,311z M676.4,276.7h-8.5v27.8
		h8.5c9,0,14.9-5.8,14.9-13.8C691.3,282.6,685.4,276.7,676.4,276.7z"/>
	<path class="st2" d="M738.2,311h-7.6v-16.1l-17.1-24.7h8.9l12,18.1l12.2-18.1h8.7l-17.1,24.6V311z"/>
	<line class="st3" x1="400.7" y1="99.6" x2="400.7" y2="90.1"/>
	<line x1="391.3" y1="109.1" x2="391.3" y2="118.5"/>
	<path class="st2" d="M476.6,65.9v-19l-4.7-9.5h-61.6h-9.5v9.5v66.3h9.5V75.4h37.9l19,37.9h9.5l-19-37.9h14.2L476.6,65.9z
		 M467.1,65.9h-56.9v-19h56.9V65.9z"/>
	<polygon class="st1" points="315.4,37.4 315.4,46.9 315.4,103.8 315.4,113.3 324.9,113.3 391.3,113.3 386.5,103.8 324.9,103.8 
		324.9,46.9 386.5,46.9 391.3,37.4 324.9,37.4 	"/>
	<path class="st2" d="M315.4,170.1v19l4.7,9.5h61.6h9.5v-9.5v-66.4h-9.5v37.9h-37.9l-19-37.9h-9.5l19,37.9h-14.2L315.4,170.1z
		 M324.9,170.1h56.9v19h-56.9V170.1z"/>
	<polygon class="st1" points="476.6,198.6 476.6,189.1 476.6,132.2 476.6,122.8 467.1,122.8 400.7,122.8 405.5,132.2 467.1,132.2 
		467.1,189.1 405.5,189.1 400.7,198.6 467.1,198.6 	"/>
</g>
</svg>
